<svg width="35" height="36" viewBox="0 0 35 36" fill="none" xmlns="http://www.w3.org/2000/svg">
<path d="M24.7918 1.55847H10.2085C5.376 1.55847 1.4585 5.47598 1.4585 10.3085V24.8918C1.4585 29.7243 5.376 33.6418 10.2085 33.6418H24.7918C29.6243 33.6418 33.5418 29.7243 33.5418 24.8918V10.3085C33.5418 5.47598 29.6243 1.55847 24.7918 1.55847Z" fill="#FFD74B"/>
<path d="M23.5157 22.175V24.2852C23.5157 24.4625 23.4453 24.6326 23.3199 24.758C23.1945 24.8834 23.0244 24.9538 22.8471 24.9538C22.6698 24.9538 22.4997 24.8834 22.3743 24.758C22.2489 24.6326 22.1784 24.4625 22.1784 24.2852V22.28H12.8218V24.2852C12.8218 24.4625 12.7513 24.6326 12.6259 24.758C12.5005 24.8834 12.3305 24.9538 12.1531 24.9538C11.9758 24.9538 11.8057 24.8834 11.6803 24.758C11.5549 24.6326 11.4845 24.4625 11.4845 24.2852V22.175L8.34469 21.3889C7.79298 21.249 7.27154 21.0093 6.80615 20.6816V24.2837C6.80654 25.17 7.15857 26.0199 7.78497 26.6468C8.41137 27.2738 9.26095 27.6265 10.1472 27.6277H24.853C25.739 27.6265 26.5884 27.274 27.2147 26.6473C27.8411 26.0207 28.1933 25.1712 28.1941 24.2852V20.6816C27.7287 21.0093 27.2072 21.2491 26.6555 21.3889L23.5157 22.175Z" fill="#8A4200"/>
<path d="M25.5209 10.2472H20.8426V9.57931C20.8426 8.47389 19.9428 7.5741 18.8373 7.5741H16.1628C15.0573 7.5741 14.1576 8.47389 14.1576 9.57931V10.2472H9.47922C8.59297 10.248 7.74324 10.6004 7.11657 11.2271C6.4899 11.8537 6.13749 12.7035 6.13672 13.5897V16.8491C6.13614 17.5949 6.38525 18.3195 6.84434 18.9073C7.30343 19.4951 7.94608 19.9123 8.66984 20.0924L11.4844 20.7953V18.9374C11.4844 18.7601 11.5549 18.59 11.6803 18.4646C11.8057 18.3392 11.9757 18.2688 12.1531 18.2688C12.3304 18.2688 12.5005 18.3392 12.6259 18.4646C12.7513 18.59 12.8217 18.7601 12.8217 18.9374V20.9426H22.1784V18.9374C22.1784 18.7601 22.2488 18.59 22.3742 18.4646C22.4996 18.3392 22.6697 18.2688 22.847 18.2688C23.0244 18.2688 23.1944 18.3392 23.3198 18.4646C23.4452 18.59 23.5157 18.7601 23.5157 18.9374V20.7953L26.3303 20.0924C27.054 19.9123 27.6967 19.4951 28.1558 18.9073C28.6149 18.3195 28.864 17.5949 28.8634 16.8491V13.5897C28.8626 12.7035 28.5102 11.8537 27.8835 11.2271C27.2569 10.6004 26.4071 10.248 25.5209 10.2472ZM19.5053 10.2472H15.4948V9.57931C15.4956 9.4024 15.5662 9.23296 15.6913 9.10786C15.8164 8.98277 15.9859 8.91216 16.1628 8.91139H18.8373C19.2063 8.91139 19.5053 9.21181 19.5053 9.57931V10.2472Z" fill="#8A4200"/>
</svg>
