<svg width="35" height="36" viewBox="0 0 35 36" fill="none" xmlns="http://www.w3.org/2000/svg">
<path d="M24.7918 1.88037H10.2085C5.376 1.88037 1.4585 5.79788 1.4585 10.6304V25.2137C1.4585 30.0462 5.376 33.9637 10.2085 33.9637H24.7918C29.6243 33.9637 33.5418 30.0462 33.5418 25.2137V10.6304C33.5418 5.79788 29.6243 1.88037 24.7918 1.88037Z" fill="#FFD74B"/>
<path d="M27.1919 15.917H26.1886V7.22821C26.1888 7.14038 26.1716 7.05337 26.1381 6.97216C26.1047 6.89096 26.0555 6.81716 25.9935 6.75498C25.9314 6.6928 25.8577 6.64348 25.7766 6.60982C25.6955 6.57616 25.6085 6.55884 25.5206 6.55884H24.3423C23.2602 6.55884 22.1752 6.8155 21.2113 7.29821C19.8361 7.988 18.6373 7.88155 18.5031 7.89613C17.58 7.89613 16.8319 8.64571 16.8319 9.56738V12.9099C16.8319 13.8301 17.5815 14.5797 18.5031 14.5797C18.6373 14.5651 20.1467 14.673 21.8092 13.8418C22.5958 13.4489 23.463 13.2442 24.3423 13.2438H24.8527V15.917H23.8494C22.9277 15.917 22.1781 16.6665 22.1781 17.5882V19.9274H18.5031C17.5815 19.9274 16.8319 20.677 16.8319 21.5986V23.9378H13.154C12.2323 23.9378 11.4827 24.6874 11.4827 25.609V27.9482H6.80585C6.62852 27.9482 6.45844 28.0187 6.33305 28.1441C6.20765 28.2694 6.13721 28.4395 6.13721 28.6169C6.13721 28.7942 6.20765 28.9643 6.33305 29.0897C6.45844 29.2151 6.62852 29.2855 6.80585 29.2855H28.1938C28.2817 29.2857 28.3689 29.2685 28.4502 29.2349C28.5315 29.2014 28.6053 29.1521 28.6675 29.0899C28.7297 29.0277 28.779 28.9538 28.8126 28.8725C28.8462 28.7912 28.8633 28.7041 28.8631 28.6161V17.5882C28.8631 16.6665 28.1136 15.917 27.1919 15.917ZM24.8527 11.9065H24.3423C23.2602 11.9065 22.1752 12.1618 21.2113 12.6459C19.8361 13.3357 18.6373 13.2293 18.5031 13.2438C18.4142 13.2438 18.3289 13.2085 18.266 13.1456C18.2031 13.0827 18.1677 12.9974 18.1677 12.9084V9.56884C18.1677 9.47988 18.2031 9.39457 18.266 9.33166C18.3289 9.26876 18.4142 9.23342 18.5031 9.23342C18.6373 9.21884 20.1467 9.32821 21.8092 8.4955C22.5958 8.10268 23.463 7.89799 24.3423 7.89759H24.8527V11.9065Z" fill="#8A4200"/>
</svg>
