<svg width="35" height="36" viewBox="0 0 35 36" fill="none" xmlns="http://www.w3.org/2000/svg">
<path d="M24.7918 1.56946H10.2085C5.376 1.56946 1.4585 5.48697 1.4585 10.3195V24.9028C1.4585 29.7353 5.376 33.6528 10.2085 33.6528H24.7918C29.6243 33.6528 33.5418 29.7353 33.5418 24.9028V10.3195C33.5418 5.48697 29.6243 1.56946 24.7918 1.56946Z" fill="#FFD74B"/>
<path d="M9.47922 28.9745H22.8478C23.7338 28.9733 24.5831 28.6207 25.2095 27.9941C25.8358 27.3675 26.188 26.518 26.1888 25.632V23.2359L28.668 20.7568C28.7301 20.6947 28.7793 20.6211 28.8129 20.54C28.8465 20.4589 28.8638 20.372 28.8638 20.2843C28.8638 20.1965 28.8465 20.1096 28.8129 20.0285C28.7793 19.9475 28.7301 19.8738 28.668 19.8118L26.1888 17.3341V12.2634C26.1889 12.1757 26.1716 12.0888 26.1381 12.0077C26.1046 11.9267 26.0554 11.853 25.9934 11.7909L20.6471 6.44468C20.5852 6.38204 20.5113 6.33237 20.43 6.29857C20.3486 6.26476 20.2613 6.24751 20.1732 6.24781H9.47922C8.59297 6.24858 7.74324 6.60098 7.11657 7.22765C6.48989 7.85433 6.13749 8.70406 6.13672 9.59031V25.632C6.13749 26.5182 6.48989 27.368 7.11657 27.9946C7.74324 28.6213 8.59297 28.9737 9.47922 28.9745ZM25.0484 22.4849V22.4863L22.5692 24.9641H20.8426V23.2345L23.8496 20.2274L25.5778 21.9555L25.0484 22.4849ZM25.5209 18.5561L27.249 20.2843L26.5242 21.0105L24.7946 19.2824L25.5209 18.5561ZM20.8426 8.5301L23.9065 11.5955H22.8478C22.3161 11.5951 21.8063 11.3837 21.4303 11.0078C21.0543 10.6318 20.8429 10.122 20.8426 9.59031V8.5301ZM9.47922 8.92239H14.8269C15.0041 8.92239 15.174 8.99276 15.2992 9.11802C15.4245 9.24328 15.4948 9.41316 15.4948 9.59031C15.4948 9.76745 15.4245 9.93734 15.2992 10.0626C15.174 10.1879 15.0041 10.2582 14.8269 10.2582H9.47922C9.30208 10.2582 9.13219 10.1879 9.00693 10.0626C8.88167 9.93734 8.8113 9.76745 8.8113 9.59031C8.8113 9.41316 8.88167 9.24328 9.00693 9.11802C9.13219 8.99276 9.30208 8.92239 9.47922 8.92239ZM9.47922 11.5955H14.8269C15.0043 11.5955 15.1743 11.666 15.2997 11.7914C15.4251 11.9168 15.4956 12.0868 15.4956 12.2642C15.4956 12.4415 15.4251 12.6116 15.2997 12.737C15.1743 12.8624 15.0043 12.9328 14.8269 12.9328H9.47922C9.30188 12.9328 9.13181 12.8624 9.00641 12.737C8.88102 12.6116 8.81057 12.4415 8.81057 12.2642C8.81057 12.0868 8.88102 11.9168 9.00641 11.7914C9.13181 11.666 9.30188 11.5955 9.47922 11.5955ZM9.47922 14.2686H22.8478C23.0251 14.2686 23.1952 14.3391 23.3206 14.4645C23.446 14.5899 23.5164 14.7599 23.5164 14.9373C23.5164 15.1146 23.446 15.2847 23.3206 15.4101C23.1952 15.5355 23.0251 15.6059 22.8478 15.6059H9.47922C9.30188 15.6059 9.13181 15.5355 9.00641 15.4101C8.88102 15.2847 8.81057 15.1146 8.81057 14.9373C8.81057 14.7599 8.88102 14.5899 9.00641 14.4645C9.13181 14.3391 9.30188 14.2686 9.47922 14.2686ZM9.47922 16.9432H22.8478C23.0249 16.9432 23.1948 17.0136 23.32 17.1389C23.4453 17.2641 23.5157 17.434 23.5157 17.6111C23.5157 17.7883 23.4453 17.9582 23.32 18.0834C23.1948 18.2087 23.0249 18.2791 22.8478 18.2791H9.47922C9.30208 18.2791 9.13219 18.2087 9.00693 18.0834C8.88167 17.9582 8.8113 17.7883 8.8113 17.6111C8.8113 17.434 8.88167 17.2641 9.00693 17.1389C9.13219 17.0136 9.30208 16.9432 9.47922 16.9432ZM9.47922 19.6163H20.1732C20.3505 19.6163 20.5206 19.6868 20.646 19.8122C20.7714 19.9376 20.8418 20.1077 20.8418 20.285C20.8418 20.4623 20.7714 20.6324 20.646 20.7578C20.5206 20.8832 20.3505 20.9536 20.1732 20.9536H9.47922C9.30188 20.9536 9.13181 20.8832 9.00641 20.7578C8.88102 20.6324 8.81057 20.4623 8.81057 20.285C8.81057 20.1077 8.88102 19.9376 9.00641 19.8122C9.13181 19.6868 9.30188 19.6163 9.47922 19.6163ZM9.47922 24.9641C9.71693 24.9641 9.93422 24.563 10.2186 23.9957C10.5788 23.2753 11.0717 22.2895 12.1523 22.2895C13.2344 22.2895 13.7273 23.2753 14.0876 23.9957C14.3705 24.563 14.5892 24.9641 14.8269 24.9641C15.2032 24.9641 15.3636 24.8182 15.6903 24.4916C16.0548 24.127 16.5551 23.6268 17.5001 23.6268C17.6774 23.6268 17.8475 23.6972 17.9729 23.8226C18.0983 23.948 18.1687 24.1181 18.1687 24.2954C18.1687 24.4727 18.0983 24.6428 17.9729 24.7682C17.8475 24.8936 17.6774 24.9641 17.5001 24.9641C17.1238 24.9641 16.9634 25.1084 16.6353 25.4366C16.2707 25.8011 15.7719 26.2999 14.8269 26.2999C13.7448 26.2999 13.2519 25.3155 12.8917 24.5936C12.6088 24.0278 12.3901 23.6268 12.1523 23.6268C11.9146 23.6268 11.6973 24.0278 11.4144 24.5936C11.0542 25.3141 10.5598 26.2999 9.47922 26.2999C9.30208 26.2999 9.13219 26.2295 9.00693 26.1043C8.88167 25.979 8.8113 25.8091 8.8113 25.632C8.8113 25.4548 8.88167 25.2849 9.00693 25.1597C9.13219 25.0344 9.30208 24.9641 9.47922 24.9641Z" fill="#8A4200"/>
</svg>
