<svg width="32" height="32" viewBox="0 0 32 32" fill="none" xmlns="http://www.w3.org/2000/svg">
<mask id="mask0_1_118" style="mask-type:luminance" maskUnits="userSpaceOnUse" x="0" y="0" width="32" height="32">
<path d="M0 0H32V32H0V0Z" fill="white"/>
</mask>
<g mask="url(#mask0_1_118)">
<path d="M16 8.00001V10M16 24V22M24.485 7.51501C29.172 12.201 29.172 19.799 24.485 24.485C19.799 29.172 12.201 29.172 7.51499 24.485C2.82899 19.799 2.82899 12.201 7.51499 7.51501C12.201 2.82801 19.799 2.82801 24.485 7.51501Z" stroke="#2142E7" stroke-width="2" stroke-linecap="round" stroke-linejoin="round"/>
<path d="M12 19.007C12 19.8027 12.3161 20.5657 12.8787 21.1283C13.4413 21.6909 14.2044 22.007 15 22.007H17.19C17.8746 22.0058 18.5353 21.7547 19.0479 21.3009C19.5605 20.847 19.8898 20.2217 19.9739 19.5422C20.058 18.8627 19.8911 18.176 19.5047 17.6108C19.1182 17.0457 18.5387 16.6411 17.875 16.473L14.125 15.533C13.459 15.3674 12.8768 14.9637 12.4882 14.398C12.0996 13.8324 11.9316 13.144 12.0159 12.463C12.1002 11.7819 12.431 11.1554 12.9458 10.7016C13.4606 10.2478 14.1238 9.99821 14.81 10H17C17.7957 10 18.5587 10.3161 19.1213 10.8787C19.6839 11.4413 20 12.2044 20 13" stroke="#2142E7" stroke-width="2" stroke-linecap="round" stroke-linejoin="round"/>
</g>
</svg>
