<svg width="25" height="26" viewBox="0 0 25 26" fill="none" xmlns="http://www.w3.org/2000/svg">
<path d="M9.32801 5.79999H3.72701C3.09225 5.79999 2.48348 6.05207 2.03455 6.50082C1.58561 6.94957 1.33327 7.55823 1.33301 8.19299V22.608C1.33354 23.2426 1.586 23.851 2.0349 24.2995C2.48381 24.748 3.09243 25 3.72701 25H13.256C13.8906 24.9997 14.4991 24.7475 14.9478 24.2988C15.3965 23.8501 15.6487 23.2416 15.649 22.607V21.589" stroke="#2142E7" stroke-width="2" stroke-linecap="round" stroke-linejoin="round"/>
<path d="M11.2 20.387L16.16 1.85298M8.39299 19.635L17.072 21.973C17.4107 22.0641 17.764 22.0876 18.1118 22.042C18.4595 21.9964 18.7949 21.8827 19.0986 21.7073C19.4024 21.5319 19.6685 21.2984 19.8819 21.02C20.0952 20.7416 20.2516 20.4239 20.342 20.085L23.911 6.69298C24.0898 6.01099 23.9923 5.28599 23.6398 4.67543C23.2872 4.06487 22.708 3.61804 22.028 3.43198L13.349 1.09298C13.0103 1.00183 12.657 0.97838 12.3092 1.02397C11.9614 1.06956 11.6261 1.1833 11.3224 1.35867C11.0186 1.53404 10.7524 1.76761 10.5391 2.04599C10.3257 2.32436 10.1694 2.64209 10.079 2.98098L6.50999 16.373C6.32839 17.0551 6.42447 17.7813 6.77721 18.3927C7.12995 19.0041 7.71159 19.4508 8.39299 19.635Z" stroke="#2142E7" stroke-width="2" stroke-linecap="round" stroke-linejoin="round"/>
</svg>
