<svg width="29" height="30" viewBox="0 0 29 30" fill="none" xmlns="http://www.w3.org/2000/svg">
<g clip-path="url(#clip0_88_296)">
<path d="M24.0833 0.833252H4.25C1.90279 0.833252 0 2.73604 0 5.08325V24.9166C0 27.2638 1.90279 29.1666 4.25 29.1666H24.0833C26.4305 29.1666 28.3333 27.2638 28.3333 24.9166V5.08325C28.3333 2.73604 26.4305 0.833252 24.0833 0.833252Z" fill="#FBBC04"/>
<path d="M19.6782 19.0951L20.3091 15H16.38V12.3437C16.38 11.2259 16.9279 10.1302 18.6877 10.1302H20.4751V6.64388C20.4751 6.64388 18.8537 6.36719 17.3042 6.36719C14.0669 6.36719 11.953 8.32617 11.953 11.8789V15H8.35596V19.0951H11.953V29.1667H16.38V19.0951H19.6782Z" fill="#242424"/>
</g>
<defs>
<clipPath id="clip0_88_296">
<rect width="28.3333" height="28.3333" fill="white" transform="translate(0 0.833252)"/>
</clipPath>
</defs>
</svg>
