<svg width="23" height="23" viewBox="0 0 23 23" fill="none" xmlns="http://www.w3.org/2000/svg">
<rect width="23" height="23" rx="11.5" fill="white"/>
<path d="M10.969 17.21C10.4557 17.21 9.97733 17.105 9.534 16.895C9.09067 16.6803 8.708 16.3863 8.386 16.013C8.06867 15.6397 7.84 15.2057 7.7 14.711L9.324 14.277C9.38933 14.5477 9.50833 14.781 9.681 14.977C9.85833 15.173 10.0637 15.3247 10.297 15.432C10.535 15.5393 10.78 15.593 11.032 15.593C11.3587 15.593 11.6573 15.5137 11.928 15.355C12.1987 15.1963 12.4133 14.984 12.572 14.718C12.7307 14.4473 12.81 14.1487 12.81 13.822C12.81 13.4953 12.7283 13.199 12.565 12.933C12.4063 12.6623 12.1917 12.45 11.921 12.296C11.6503 12.1373 11.354 12.058 11.032 12.058C10.6447 12.058 10.3227 12.128 10.066 12.268C9.814 12.408 9.62033 12.5573 9.485 12.716L8.043 12.254L8.351 6.92H13.825V8.502H9.254L9.884 7.907L9.66 11.617L9.352 11.239C9.61333 11.001 9.91667 10.8237 10.262 10.707C10.6073 10.5903 10.941 10.532 11.263 10.532C11.893 10.532 12.4507 10.6767 12.936 10.966C13.426 11.2507 13.8087 11.6403 14.084 12.135C14.364 12.6297 14.504 13.192 14.504 13.822C14.504 14.452 14.3407 15.0237 14.014 15.537C13.6873 16.0457 13.2557 16.4517 12.719 16.755C12.187 17.0583 11.6037 17.21 10.969 17.21Z" fill="#402E95"/>
</svg>
