<svg width="26" height="26" viewBox="0 0 26 26" fill="none" xmlns="http://www.w3.org/2000/svg">
<path d="M17 19.667L18.333 17L14.403 14.359L11.812 14.193L10.333 15.667L13 19.667H17Z" stroke="#2142E7" stroke-width="2" stroke-linecap="round" stroke-linejoin="round"/>
<path d="M14.0841 1.047C12.3318 0.886312 10.5657 1.11319 8.91101 1.71155C7.2563 2.3099 5.75353 3.26506 4.50933 4.50926C3.26512 5.75347 2.30996 7.25624 1.71161 8.91095C1.11325 10.5657 0.886373 12.3318 1.04706 14.084C1.54306 19.789 6.20906 24.456 11.9151 24.952C13.6673 25.1129 15.4335 24.8861 17.0883 24.2878C18.7431 23.6895 20.2459 22.7344 21.4902 21.4901C22.7344 20.2459 23.6896 18.743 24.2879 17.0882C24.8862 15.4334 25.1129 13.6673 24.9521 11.915C24.4561 6.21 19.7901 1.545 14.0841 1.047Z" stroke="#2142E7" stroke-width="2" stroke-linecap="round" stroke-linejoin="round"/>
<path d="M2.26807 7.61501L7.66707 11.667L9.00707 9.00701L14.3331 7.66701L15.9091 1.36401" stroke="#2142E7" stroke-width="2" stroke-linecap="round" stroke-linejoin="round"/>
</svg>
