<svg width="40" height="40" viewBox="0 0 40 40" fill="none" xmlns="http://www.w3.org/2000/svg">
<g clip-path="url(#clip0_88_79)">
<mask id="mask0_88_79" style="mask-type:luminance" maskUnits="userSpaceOnUse" x="0" y="0" width="40" height="40">
<path d="M0 0H40V40H0V0Z" fill="white"/>
</mask>
<g mask="url(#mask0_88_79)">
<path d="M19.9999 9.99995V12.4999M19.9999 29.9999V27.4999M30.6061 9.3937C36.4649 15.2512 36.4649 24.7487 30.6061 30.6062C24.7486 36.4649 15.2511 36.4649 9.39361 30.6062C3.53611 24.7487 3.53611 15.2512 9.39361 9.3937C15.2511 3.53495 24.7486 3.53495 30.6061 9.3937Z" stroke="#001F60" stroke-width="2" stroke-linecap="round" stroke-linejoin="round"/>
<path d="M14.9999 23.7586C14.9999 24.7532 15.395 25.707 16.0982 26.4103C16.8015 27.1136 17.7553 27.5086 18.7499 27.5086H21.4874C22.3432 27.5072 23.169 27.1933 23.8097 26.626C24.4505 26.0587 24.8621 25.277 24.9672 24.4276C25.0723 23.5783 24.8638 22.7198 24.3807 22.0134C23.8976 21.307 23.1732 20.8012 22.3436 20.5911L17.6561 19.4161C16.8237 19.2091 16.0958 18.7044 15.6101 17.9974C15.1244 17.2904 14.9144 16.4299 15.0198 15.5786C15.1252 14.7273 15.5387 13.9441 16.1821 13.3768C16.8256 12.8096 17.6546 12.4976 18.5124 12.4999H21.2499C22.2444 12.4999 23.1983 12.895 23.9015 13.5982C24.6048 14.3015 24.9999 15.2553 24.9999 16.2499" stroke="#001F60" stroke-width="2" stroke-linecap="round" stroke-linejoin="round"/>
</g>
</g>
<defs>
<clipPath id="clip0_88_79">
<rect width="40" height="40" fill="white"/>
</clipPath>
</defs>
</svg>
