<svg width="26" height="26" viewBox="0 0 26 26" fill="none" xmlns="http://www.w3.org/2000/svg">
<path d="M13 5.00001V7.00001M13 21V19M21.485 4.51501C26.172 9.20101 26.172 16.799 21.485 21.485C16.799 26.172 9.20099 26.172 4.51499 21.485C-0.171012 16.799 -0.171012 9.20101 4.51499 4.51501C9.20099 -0.171994 16.799 -0.171994 21.485 4.51501Z" stroke="#2142E7" stroke-width="2" stroke-linecap="round" stroke-linejoin="round"/>
<path d="M9 16.007C9 16.8027 9.31607 17.5657 9.87868 18.1283C10.4413 18.6909 11.2044 19.007 12 19.007H14.19C14.8746 19.0058 15.5353 18.7547 16.0479 18.3009C16.5605 17.847 16.8898 17.2217 16.9739 16.5422C17.058 15.8627 16.8911 15.176 16.5047 14.6108C16.1182 14.0457 15.5387 13.6411 14.875 13.473L11.125 12.533C10.459 12.3674 9.87677 11.9637 9.48818 11.398C9.0996 10.8324 8.9316 10.144 9.01591 9.463C9.10023 8.78195 9.43102 8.15535 9.94581 7.70156C10.4606 7.24777 11.1238 6.99821 11.81 7.00001H14C14.7957 7.00001 15.5587 7.31608 16.1213 7.87869C16.6839 8.4413 17 9.20436 17 10" stroke="#2142E7" stroke-width="2" stroke-linecap="round" stroke-linejoin="round"/>
</svg>
