<svg width="25" height="25" viewBox="0 0 25 25" fill="none" xmlns="http://www.w3.org/2000/svg">
<path d="M13.2419 12.346L9.84194 20.369M17.7229 1.77699C19.9112 2.70587 21.6848 4.40198 22.7105 6.54655C23.7362 8.69112 23.9433 11.1365 23.2929 13.423L23.2049 13.733C23.1149 14.0507 22.9583 14.3456 22.7455 14.598C22.5326 14.8505 22.2685 15.0548 21.9706 15.1972C21.6727 15.3397 21.3479 15.4171 21.0178 15.4243C20.6876 15.4315 20.3598 15.3683 20.0559 15.239L6.41994 9.44899C6.11618 9.31981 5.84336 9.12753 5.61955 8.8849C5.39574 8.64227 5.22606 8.35484 5.12176 8.04166C5.01746 7.72848 4.98092 7.39671 5.01458 7.06834C5.04823 6.73997 5.15129 6.42251 5.31694 6.13699L5.47694 5.85799C6.67046 3.80228 8.57365 2.25322 10.8289 1.50192C13.0841 0.750612 15.536 0.848787 17.7239 1.77799L17.7229 1.77699Z" stroke="#2142E7" stroke-width="2" stroke-linecap="round" stroke-linejoin="round"/>
<path d="M15.879 13.466C16.9925 11.9908 17.7629 10.2859 18.1341 8.47537C18.5054 6.66483 18.4681 4.79428 18.025 2.99998L17.723 1.77698L16.634 2.40798C15.0353 3.33582 13.6637 4.60854 12.619 6.13346C11.5743 7.65837 10.8828 9.39708 10.595 11.223M1 23.667C2.05231 22.6144 3.30168 21.7794 4.67673 21.2097C6.05179 20.6401 7.52561 20.3468 9.014 20.3468C10.5024 20.3468 11.9762 20.6401 13.3513 21.2097C14.7263 21.7794 15.9757 22.6144 17.028 23.667" stroke="#2142E7" stroke-width="2" stroke-linecap="round" stroke-linejoin="round"/>
</svg>
