<svg width="26" height="26" viewBox="0 0 26 26" fill="none" xmlns="http://www.w3.org/2000/svg">
<path d="M18 12C18 11.7348 17.8946 11.4804 17.7071 11.2929C17.5196 11.1054 17.2652 11 17 11H15V9C15 8.73478 14.8946 8.48043 14.7071 8.29289C14.5196 8.10536 14.2652 8 14 8H12C11.7348 8 11.4804 8.10536 11.2929 8.29289C11.1054 8.48043 11 8.73478 11 9V11H9C8.73478 11 8.48043 11.1054 8.29289 11.2929C8.10536 11.4804 8 11.7348 8 12V14C8 14.2652 8.10536 14.5196 8.29289 14.7071C8.48043 14.8946 8.73478 15 9 15H11V17C11 17.2652 11.1054 17.5196 11.2929 17.7071C11.4804 17.8946 11.7348 18 12 18H14C14.2652 18 14.5196 17.8946 14.7071 17.7071C14.8946 17.5196 15 17.2652 15 17V15H17C17.2652 15 17.5196 14.8946 17.7071 14.7071C17.8946 14.5196 18 14.2652 18 14V12Z" stroke="#2142E7" stroke-width="2" stroke-linecap="round" stroke-linejoin="round"/>
<path d="M1.66699 11.356C1.66694 14.2376 2.54697 17.0504 4.18932 19.4182C5.83167 21.7859 8.158 23.5956 10.857 24.605L10.897 24.62C12.2536 25.1271 13.7479 25.1264 15.104 24.618L15.136 24.606C17.8373 23.5936 20.1653 21.7807 21.8087 19.4098C23.4522 17.0389 24.3329 14.2228 24.333 11.338V6.374C24.3331 5.80564 24.1517 5.25211 23.8151 4.79412C23.4785 4.33613 23.0044 3.99764 22.462 3.828L13.795 1.121C13.2773 0.959341 12.7227 0.959341 12.205 1.121L3.53799 3.828C2.99554 3.99764 2.52146 4.33613 2.18489 4.79412C1.84833 5.25211 1.66687 5.80564 1.66699 6.374V11.356Z" stroke="#2142E7" stroke-width="2" stroke-linecap="round" stroke-linejoin="round"/>
</svg>
