<svg width="32" height="32" viewBox="0 0 32 32" fill="none" xmlns="http://www.w3.org/2000/svg">
<g clip-path="url(#clip0_1_135)">
<mask id="mask0_1_135" style="mask-type:luminance" maskUnits="userSpaceOnUse" x="0" y="0" width="32" height="32">
<path d="M0 0H32V32H0V0Z" fill="white"/>
</mask>
<g mask="url(#mask0_1_135)">
<path d="M21 15C21 14.7348 20.8946 14.4804 20.7071 14.2929C20.5196 14.1054 20.2652 14 20 14H18V12C18 11.7348 17.8946 11.4804 17.7071 11.2929C17.5196 11.1054 17.2652 11 17 11H15C14.7348 11 14.4804 11.1054 14.2929 11.2929C14.1054 11.4804 14 11.7348 14 12V14H12C11.7348 14 11.4804 14.1054 11.2929 14.2929C11.1054 14.4804 11 14.7348 11 15V17C11 17.2652 11.1054 17.5196 11.2929 17.7071C11.4804 17.8946 11.7348 18 12 18H14V20C14 20.2652 14.1054 20.5196 14.2929 20.7071C14.4804 20.8946 14.7348 21 15 21H17C17.2652 21 17.5196 20.8946 17.7071 20.7071C17.8946 20.5196 18 20.2652 18 20V18H20C20.2652 18 20.5196 17.8946 20.7071 17.7071C20.8946 17.5196 21 17.2652 21 17V15Z" stroke="#2142E7" stroke-width="2" stroke-linecap="round" stroke-linejoin="round"/>
<path d="M4.66699 14.356C4.66694 17.2376 5.54697 20.0504 7.18932 22.4182C8.83167 24.7859 11.158 26.5956 13.857 27.605L13.897 27.62C15.2536 28.1271 16.7479 28.1264 18.104 27.618L18.136 27.606C20.8373 26.5936 23.1653 24.7807 24.8087 22.4098C26.4522 20.0389 27.3329 17.2228 27.333 14.338V9.374C27.3331 8.80564 27.1517 8.25211 26.8151 7.79412C26.4785 7.33613 26.0044 6.99764 25.462 6.828L16.795 4.121C16.2773 3.95934 15.7227 3.95934 15.205 4.121L6.53799 6.828C5.99554 6.99764 5.52146 7.33613 5.18489 7.79412C4.84833 8.25211 4.66687 8.80564 4.66699 9.374V14.356Z" stroke="#2142E7" stroke-width="2" stroke-linecap="round" stroke-linejoin="round"/>
</g>
</g>
<defs>
<clipPath id="clip0_1_135">
<rect width="32" height="32" fill="white"/>
</clipPath>
</defs>
</svg>
