<svg width="33" height="34" viewBox="0 0 33 34" fill="none" xmlns="http://www.w3.org/2000/svg">
<path d="M25.5454 1.86572H8.34298C4.78025 1.86572 1.89209 4.75389 1.89209 8.31662V25.519C1.89209 29.0817 4.78025 31.9699 8.34298 31.9699H25.5454C29.1081 31.9699 31.9963 29.0817 31.9963 25.519V8.31662C31.9963 4.75389 29.1081 1.86572 25.5454 1.86572Z" fill="#FBBC04"/>
<path d="M25.5454 1.86572H8.34298C4.78025 1.86572 1.89209 4.75389 1.89209 8.31662V25.519C1.89209 29.0817 4.78025 31.9699 8.34298 31.9699H25.5454C29.1081 31.9699 31.9963 29.0817 31.9963 25.519V8.31662C31.9963 4.75389 29.1081 1.86572 25.5454 1.86572Z" fill="#FBBC04"/>
<path d="M25.5454 1.86572H8.34298C4.78025 1.86572 1.89209 4.75389 1.89209 8.31662V25.519C1.89209 29.0817 4.78025 31.9699 8.34298 31.9699H25.5454C29.1081 31.9699 31.9963 29.0817 31.9963 25.519V8.31662C31.9963 4.75389 29.1081 1.86572 25.5454 1.86572Z" fill="#FBBC04"/>
<path d="M24.4701 11.0046C24.4701 11.8952 23.748 12.6173 22.8574 12.6173C21.9667 12.6173 21.2446 11.8952 21.2446 11.0046C21.2446 10.1139 21.9667 9.39185 22.8574 9.39185C23.748 9.39185 24.4701 10.1139 24.4701 11.0046Z" fill="#242424"/>
<path fill-rule="evenodd" clip-rule="evenodd" d="M16.9441 22.2935C19.913 22.2935 22.3198 19.8867 22.3198 16.9177C22.3198 13.9488 19.913 11.542 16.9441 11.542C13.9752 11.542 11.5684 13.9488 11.5684 16.9177C11.5684 19.8867 13.9752 22.2935 16.9441 22.2935ZM16.9441 20.1432C18.7255 20.1432 20.1695 18.6992 20.1695 16.9177C20.1695 15.1363 18.7255 13.6923 16.9441 13.6923C15.1627 13.6923 13.7187 15.1363 13.7187 16.9177C13.7187 18.6992 15.1627 20.1432 16.9441 20.1432Z" fill="#242424"/>
<path fill-rule="evenodd" clip-rule="evenodd" d="M6.19238 16.4877C6.19238 12.8749 6.19238 11.0684 6.89549 9.68851C7.51396 8.47469 8.50081 7.48783 9.71463 6.86936C11.0945 6.16626 12.901 6.16626 16.5138 6.16626H17.3739C20.9868 6.16626 22.7932 6.16626 24.1731 6.86936C25.3869 7.48783 26.3738 8.47469 26.9922 9.68851C27.6954 11.0684 27.6954 12.8749 27.6954 16.4877V17.3478C27.6954 20.9606 27.6954 22.7671 26.9922 24.1469C26.3738 25.3608 25.3869 26.3477 24.1731 26.9661C22.7932 27.6692 20.9868 27.6692 17.3739 27.6692H16.5138C12.901 27.6692 11.0945 27.6692 9.71463 26.9661C8.50081 26.3477 7.51396 25.3608 6.89549 24.1469C6.19238 22.7671 6.19238 20.9606 6.19238 17.3478V16.4877ZM16.5138 8.31656H17.3739C19.2159 8.31656 20.4679 8.31823 21.4357 8.3973C22.3785 8.47432 22.8606 8.61393 23.1969 8.78529C24.0061 9.19761 24.664 9.85551 25.0763 10.6647C25.2477 11.001 25.3873 11.4831 25.4643 12.4259C25.5433 13.3937 25.5451 14.6457 25.5451 16.4877V17.3478C25.5451 19.1898 25.5433 20.4418 25.4643 21.4096C25.3873 22.3524 25.2477 22.8345 25.0763 23.1708C24.664 23.98 24.0061 24.6379 23.1969 25.0502C22.8606 25.2216 22.3785 25.3612 21.4357 25.4382C20.4679 25.5172 19.2159 25.5189 17.3739 25.5189H16.5138C14.6719 25.5189 13.4199 25.5172 12.452 25.4382C11.5092 25.3612 11.0271 25.2216 10.6908 25.0502C9.88164 24.6379 9.22373 23.98 8.81141 23.1708C8.64006 22.8345 8.50045 22.3524 8.42342 21.4096C8.34436 20.4418 8.34268 19.1898 8.34268 17.3478V16.4877C8.34268 14.6457 8.34436 13.3937 8.42342 12.4259C8.50045 11.4831 8.64006 11.001 8.81141 10.6647C9.22373 9.85551 9.88164 9.19761 10.6908 8.78529C11.0271 8.61393 11.5092 8.47432 12.452 8.3973C13.4199 8.31823 14.6719 8.31656 16.5138 8.31656Z" fill="#242424"/>
</svg>
