<svg width="30" height="30" viewBox="0 0 30 30" fill="none" xmlns="http://www.w3.org/2000/svg">
<g clip-path="url(#clip0_88_299)">
<rect x="3.77783" y="3.44482" width="23.6111" height="22.6667" fill="#242424"/>
<path d="M25.0857 24.9748H20.8876V18.4002C20.8876 16.8325 20.8596 14.8143 18.7041 14.8143C16.5176 14.8143 16.1831 16.5224 16.1831 18.2861V24.9744H11.9849V11.4544H16.0151V13.302H16.0715C16.8933 11.8969 18.4213 11.0577 20.0479 11.1181C24.3029 11.1181 25.0874 13.9169 25.0874 17.558L25.0857 24.9748ZM7.24807 9.60631C5.90258 9.60655 4.81165 8.51599 4.81141 7.17048C4.81117 5.82496 5.90171 4.73401 7.24719 4.73377C8.59268 4.73353 9.68361 5.82409 9.68385 7.1696C9.68396 7.81574 9.4274 8.43546 8.9706 8.89243C8.51381 9.3494 7.89419 9.60619 7.24807 9.60631ZM9.34712 24.9748H5.14464V11.4544H9.34712V24.9748ZM27.1786 0.835121H3.03508C1.89401 0.822243 0.958262 1.73629 0.944336 2.87737V27.1216C0.957785 28.2632 1.89346 29.1782 3.03508 29.1662H27.1786C28.3225 29.1804 29.2618 28.2655 29.2777 27.1216V2.87562C29.2614 1.73228 28.3219 0.818292 27.1786 0.833187" fill="#FBBC04"/>
</g>
<defs>
<clipPath id="clip0_88_299">
<rect width="28.3333" height="28.3333" fill="white" transform="translate(0.944336 0.833252)"/>
</clipPath>
</defs>
</svg>
