<svg width="22" height="22" viewBox="0 0 22 22" fill="none" xmlns="http://www.w3.org/2000/svg">
<path d="M10.9998 0C6.60645 0 3.03223 3.57423 3.03223 7.96752C3.03223 13.4197 10.1624 21.4239 10.466 21.762C10.7511 22.0796 11.249 22.079 11.5336 21.762C11.8372 21.4239 18.9674 13.4197 18.9674 7.96752C18.9673 3.57423 15.3931 0 10.9998 0ZM10.9998 11.9762C8.78939 11.9762 6.99115 10.1779 6.99115 7.96752C6.99115 5.75712 8.78944 3.95888 10.9998 3.95888C13.2101 3.95888 15.0084 5.75717 15.0084 7.96757C15.0084 10.178 13.2101 11.9762 10.9998 11.9762Z" fill="#FBBC04"/>
</svg>
