<svg width="35" height="36" viewBox="0 0 35 36" fill="none" xmlns="http://www.w3.org/2000/svg">
<path d="M24.7918 1.58057H10.2085C5.376 1.58057 1.4585 5.49807 1.4585 10.3306V24.9139C1.4585 29.7464 5.376 33.6639 10.2085 33.6639H24.7918C29.6243 33.6639 33.5418 29.7464 33.5418 24.9139V10.3306C33.5418 5.49807 29.6243 1.58057 24.7918 1.58057Z" fill="#FFD74B"/>
<path d="M26.1888 24.3057C26.1888 24.1286 26.1184 23.9587 25.9931 23.8334C25.8679 23.7082 25.698 23.6378 25.5209 23.6378H9.47919C9.30186 23.6378 9.13178 23.7083 9.00639 23.8336C8.88099 23.959 8.81055 24.1291 8.81055 24.3065C8.81055 24.4838 8.88099 24.6539 9.00639 24.7793C9.13178 24.9047 9.30186 24.9751 9.47919 24.9751H25.5209C25.6087 24.9751 25.6957 24.9578 25.7768 24.9241C25.8579 24.8905 25.9316 24.8411 25.9937 24.779C26.0557 24.7168 26.1049 24.643 26.1384 24.5618C26.1718 24.4806 26.189 24.3936 26.1888 24.3057ZM10.8165 26.3109C10.6391 26.3109 10.4691 26.3814 10.3437 26.5068C10.2183 26.6322 10.1478 26.8022 10.1478 26.9796C10.1478 27.1569 10.2183 27.327 10.3437 27.4524C10.4691 27.5778 10.6391 27.6482 10.8165 27.6482H24.1836C24.3609 27.6482 24.531 27.5778 24.6564 27.4524C24.7818 27.327 24.8522 27.1569 24.8522 26.9796C24.8522 26.8022 24.7818 26.6322 24.6564 26.5068C24.531 26.3814 24.3609 26.3109 24.1836 26.3109H10.8165ZM17.5 16.9543C18.0318 16.9543 18.5419 16.743 18.9179 16.367C19.294 15.9909 19.5052 15.4809 19.5052 14.9491C19.5052 14.4172 19.294 13.9072 18.9179 13.5312C18.5419 13.1551 18.0318 12.9438 17.5 12.9438C16.9682 12.9438 16.4582 13.1551 16.0821 13.5312C15.7061 13.9072 15.4948 14.4172 15.4948 14.9491C15.4948 15.4809 15.7061 15.9909 16.0821 16.367C16.4582 16.743 16.9682 16.9543 17.5 16.9543Z" fill="#8A4200"/>
<path d="M26.8582 7.59619H8.14193C7.03651 7.59619 6.13672 8.49598 6.13672 9.6014V20.2954C6.13672 21.4022 7.03651 22.3006 8.14193 22.3006H26.8582C27.9636 22.3006 28.8634 21.4022 28.8634 20.2954V9.6014C28.8634 8.49598 27.9636 7.59619 26.8582 7.59619ZM12.1582 20.9837C12.0729 21.0053 11.9841 21.0098 11.897 20.997C11.8099 20.9842 11.7263 20.9543 11.6508 20.909C11.5753 20.8638 11.5095 20.804 11.4572 20.7332C11.4048 20.6625 11.367 20.582 11.3459 20.4966C11.1424 19.6797 10.722 18.9329 10.129 18.3352C9.53598 17.7376 8.79249 17.3114 7.97713 17.1016C7.81723 17.0468 7.68389 16.9337 7.6038 16.7849C7.5237 16.636 7.50275 16.4624 7.54513 16.2988C7.58751 16.1351 7.69011 15.9935 7.83239 15.9023C7.97467 15.811 8.14616 15.7769 8.31255 15.8066C9.36088 16.0767 10.3168 16.625 11.0792 17.3936C11.8416 18.1621 12.3822 19.1224 12.6438 20.1729C12.6866 20.345 12.6593 20.527 12.568 20.679C12.4767 20.8311 12.3302 20.9406 12.1582 20.9837ZM12.6438 9.72536C12.3818 10.7757 11.8409 11.7358 11.0782 12.5041C10.3156 13.2724 9.35951 13.8204 8.31109 14.0901C8.1447 14.1199 7.97321 14.0857 7.83093 13.9945C7.68865 13.9032 7.58606 13.7616 7.54367 13.598C7.50129 13.4344 7.52224 13.2608 7.60234 13.1119C7.68243 12.9631 7.81577 12.8499 7.97568 12.7951C8.7913 12.5856 9.5351 12.1595 10.1284 11.5618C10.7216 10.9642 11.1423 10.2173 11.3459 9.40015C11.3944 9.23418 11.5052 9.09343 11.6552 9.00736C11.8052 8.9213 11.9826 8.8966 12.1504 8.93845C12.3182 8.9803 12.4632 9.08544 12.5552 9.23185C12.6472 9.37827 12.6789 9.55606 12.6438 9.72536ZM17.5001 18.2887C16.6141 18.2879 15.7645 17.9357 15.1379 17.3094C14.5113 16.683 14.1587 15.8336 14.1576 14.9477C14.1587 14.0617 14.5113 13.2123 15.1379 12.5859C15.7645 11.9596 16.6141 11.6074 17.5001 11.6066C18.3863 11.6074 19.236 11.9598 19.8627 12.5865C20.4894 13.2131 20.8418 14.0629 20.8426 14.9491C20.8414 15.8351 20.4888 16.6845 19.8622 17.3108C19.2356 17.9372 18.386 18.2894 17.5001 18.2902V18.2887ZM27.0565 17.0929C26.2399 17.2963 25.4935 17.7166 24.8961 18.3093C24.2988 18.902 23.8727 19.6452 23.663 20.4601C23.6119 20.624 23.4998 20.7619 23.3499 20.8455C23.2 20.929 23.0237 20.9518 22.8575 20.9091C22.6913 20.8665 22.5478 20.7616 22.4567 20.6161C22.3656 20.4707 22.3338 20.2958 22.368 20.1277C22.6376 19.0792 23.1855 18.123 23.9538 17.3603C24.7221 16.5976 25.6823 16.0568 26.7328 15.7949C26.9021 15.7598 27.0784 15.7916 27.2248 15.8835C27.3712 15.9755 27.4764 16.1206 27.5182 16.2884C27.5601 16.4561 27.5354 16.6336 27.4493 16.7835C27.3632 16.9335 27.2225 17.0444 27.0565 17.0929ZM27.5451 13.6133C27.502 13.785 27.3926 13.9327 27.2409 14.0239C27.0893 14.1152 26.9076 14.1427 26.7357 14.1004C25.6765 13.838 24.709 13.2917 23.9374 12.5202C23.1657 11.7488 22.619 10.7815 22.3563 9.72244C22.3281 9.55583 22.3639 9.38472 22.4564 9.24333C22.549 9.10194 22.6914 9.00068 22.8554 8.95978C23.0194 8.91889 23.1927 8.94137 23.3408 9.02274C23.4889 9.10411 23.6008 9.23837 23.6542 9.39869C23.8584 10.2222 24.2834 10.9743 24.8835 11.5741C25.4835 12.1739 26.2359 12.5986 27.0594 12.8024C27.2313 12.8458 27.3789 12.9555 27.4702 13.1074C27.5615 13.2593 27.5874 13.4412 27.5451 13.6133Z" fill="#8A4200"/>
</svg>
