<svg width="40" height="40" viewBox="0 0 40 40" fill="none" xmlns="http://www.w3.org/2000/svg">
<mask id="mask0_88_123" style="mask-type:luminance" maskUnits="userSpaceOnUse" x="0" y="0" width="40" height="40">
<path d="M0 0H40V40H0V0Z" fill="white"/>
</mask>
<g mask="url(#mask0_88_123)">
<path d="M16.6598 10.9999H9.65852C8.86507 10.9999 8.10411 11.315 7.54294 11.8759C6.98177 12.4369 6.66635 13.1977 6.66602 13.9911V32.0099C6.66668 32.8031 6.98225 33.5636 7.54338 34.1243C8.10451 34.6849 8.86529 34.9999 9.65852 34.9999H21.5698C22.363 34.9995 23.1236 34.6843 23.6845 34.1234C24.2454 33.5625 24.5607 32.8019 24.561 32.0086V30.7361" stroke="#2142E7" stroke-width="2" stroke-linecap="round" stroke-linejoin="round"/>
<path d="M18.9997 29.2338L25.1997 6.06625M15.4909 28.2938L26.3397 31.2163C26.763 31.3302 27.2047 31.3595 27.6394 31.3025C28.0741 31.2455 28.4933 31.1034 28.873 30.8841C29.2527 30.6649 29.5854 30.373 29.8521 30.025C30.1187 29.677 30.3142 29.2799 30.4272 28.8563L34.8884 12.1163C35.1119 11.2638 34.9901 10.3575 34.5494 9.59432C34.1087 8.83112 33.3847 8.27259 32.5347 8.04L21.6859 5.11625C21.2626 5.00232 20.8209 4.973 20.3862 5.02999C19.9515 5.08698 19.5323 5.22916 19.1526 5.44837C18.773 5.66759 18.4402 5.95954 18.1736 6.30751C17.9069 6.65549 17.7114 7.05265 17.5984 7.47625L13.1372 24.2163C12.9102 25.0689 13.0303 25.9767 13.4712 26.7409C13.9121 27.5052 14.6392 28.0635 15.4909 28.2938Z" stroke="#2142E7" stroke-width="2" stroke-linecap="round" stroke-linejoin="round"/>
</g>
</svg>
