<svg width="23" height="23" viewBox="0 0 23 23" fill="none" xmlns="http://www.w3.org/2000/svg">
<rect width="23" height="23" rx="11.5" fill="white"/>
<path d="M7.7 16.986V15.516L12.012 11.673C12.348 11.3743 12.5813 11.092 12.712 10.826C12.8427 10.56 12.908 10.3033 12.908 10.056C12.908 9.72 12.8357 9.42133 12.691 9.16C12.5463 8.894 12.3457 8.684 12.089 8.53C11.837 8.376 11.5453 8.299 11.214 8.299C10.864 8.299 10.5537 8.38067 10.283 8.544C10.017 8.70267 9.80933 8.915 9.66 9.181C9.51067 9.447 9.44067 9.734 9.45 10.042H7.714C7.714 9.37 7.86333 8.78433 8.162 8.285C8.46533 7.78567 8.88067 7.39833 9.408 7.123C9.94 6.84767 10.5537 6.71 11.249 6.71C11.893 6.71 12.4717 6.85467 12.985 7.144C13.4983 7.42867 13.902 7.82533 14.196 8.334C14.49 8.838 14.637 9.419 14.637 10.077C14.637 10.5577 14.5717 10.9613 14.441 11.288C14.3103 11.6147 14.1143 11.9157 13.853 12.191C13.5963 12.4663 13.2767 12.772 12.894 13.108L9.835 15.817L9.681 15.397H14.637V16.986H7.7Z" fill="#402E95"/>
</svg>
