<svg width="35" height="36" viewBox="0 0 35 36" fill="none" xmlns="http://www.w3.org/2000/svg">
<path d="M24.7918 1.59155H10.2085C5.376 1.59155 1.4585 5.50906 1.4585 10.3416V24.9249C1.4585 29.7574 5.376 33.6749 10.2085 33.6749H24.7918C29.6243 33.6749 33.5418 29.7574 33.5418 24.9249V10.3416C33.5418 5.50906 29.6243 1.59155 24.7918 1.59155Z" fill="#FFD74B"/>
<path d="M10.2085 26.2609C10.3501 27.0282 10.7557 27.7217 11.355 28.2214C11.9543 28.7211 12.7095 28.9953 13.4897 28.9967H24.1837C25.07 28.9959 25.9197 28.6435 26.5464 28.0168C27.173 27.3902 27.5254 26.5404 27.5262 25.6542V12.2856C27.5262 10.6523 26.345 9.29314 24.7918 9.00439C24.6499 8.23736 24.2442 7.54411 23.6449 7.04474C23.0457 6.54536 22.2906 6.27129 21.5106 6.27002H10.8166C9.93037 6.27079 9.08064 6.62319 8.45397 7.24987C7.8273 7.87654 7.47489 8.72627 7.47412 9.61252V22.9811C7.47412 24.6159 8.65537 25.9736 10.2085 26.2609ZM8.81141 9.61252C8.81141 8.5071 9.70975 7.60731 10.8166 7.60731H12.1525C12.5214 7.60731 12.8218 7.90627 12.8218 8.27523V10.2804C12.8138 10.4524 12.7398 10.6146 12.6153 10.7334C12.4908 10.8523 12.3253 10.9186 12.1532 10.9186C11.9811 10.9186 11.8156 10.8523 11.691 10.7334C11.5665 10.6146 11.4926 10.4524 11.4845 10.2804V9.61252C11.4845 9.52471 11.4672 9.43776 11.4336 9.35664C11.4 9.27552 11.3508 9.2018 11.2887 9.13972C11.2266 9.07763 11.1529 9.02837 11.0718 8.99477C10.9906 8.96117 10.9037 8.94387 10.8159 8.94387C10.7281 8.94387 10.6411 8.96117 10.56 8.99477C10.4789 9.02837 10.4052 9.07763 10.3431 9.13972C10.281 9.2018 10.2317 9.27552 10.1981 9.35664C10.1645 9.43776 10.1472 9.52471 10.1472 9.61252V10.2804C10.167 10.799 10.3869 11.2898 10.7608 11.6497C11.1347 12.0096 11.6335 12.2106 12.1525 12.2106C12.6714 12.2106 13.1702 12.0096 13.5441 11.6497C13.918 11.2898 14.1379 10.799 14.1577 10.2804V8.27523C14.1555 8.0472 14.1141 7.82125 14.0352 7.60731H21.5106C22.616 7.60731 23.5158 8.5071 23.5158 9.61252V22.9811C23.5158 24.0865 22.616 24.9863 21.5106 24.9863H10.8166C10.2849 24.9859 9.77512 24.7745 9.39915 24.3985C9.02319 24.0226 8.8118 23.5128 8.81141 22.9811V9.61252Z" fill="#8A4200"/>
<path d="M17.5001 10.9498H21.5106C21.6879 10.9498 21.858 10.8794 21.9834 10.754C22.1088 10.6286 22.1792 10.4585 22.1792 10.2812C22.1792 10.1039 22.1088 9.93379 21.9834 9.80839C21.858 9.683 21.6879 9.61255 21.5106 9.61255H17.5001C17.3228 9.61255 17.1527 9.683 17.0273 9.80839C16.9019 9.93379 16.8315 10.1039 16.8315 10.2812C16.8315 10.4585 16.9019 10.6286 17.0273 10.754C17.1527 10.8794 17.3228 10.9498 17.5001 10.9498ZM16.1628 17.6334H21.5106C21.5983 17.6334 21.6851 17.6161 21.7662 17.5825C21.8472 17.549 21.9208 17.4998 21.9828 17.4378C22.0449 17.3757 22.0941 17.3021 22.1276 17.2211C22.1612 17.14 22.1785 17.0532 22.1785 16.9655V14.2909C22.1785 14.1137 22.1081 13.9439 21.9828 13.8186C21.8576 13.6933 21.6877 13.623 21.5106 13.623H16.1628C15.9857 13.623 15.8158 13.6933 15.6906 13.8186C15.5653 13.9439 15.4949 14.1137 15.4949 14.2909V16.9655C15.4949 17.3344 15.7939 17.6334 16.1628 17.6334ZM10.8166 14.9603H13.4897C13.5775 14.9603 13.6645 14.943 13.7456 14.9094C13.8267 14.8758 13.9004 14.8265 13.9625 14.7644C14.0246 14.7023 14.0739 14.6286 14.1075 14.5475C14.1411 14.4664 14.1584 14.3794 14.1584 14.2916C14.1584 14.2038 14.1411 14.1169 14.1075 14.0357C14.0739 13.9546 14.0246 13.8809 13.9625 13.8188C13.9004 13.7567 13.8267 13.7075 13.7456 13.6739C13.6645 13.6403 13.5775 13.623 13.4897 13.623H10.8166C10.7288 13.623 10.6418 13.6403 10.5607 13.6739C10.4796 13.7075 10.4059 13.7567 10.3438 13.8188C10.2817 13.8809 10.2324 13.9546 10.1988 14.0357C10.1652 14.1169 10.1479 14.2038 10.1479 14.2916C10.1479 14.3794 10.1652 14.4664 10.1988 14.5475C10.2324 14.6286 10.2817 14.7023 10.3438 14.7644C10.4059 14.8265 10.4796 14.8758 10.5607 14.9094C10.6418 14.943 10.7288 14.9603 10.8166 14.9603ZM10.8166 17.6334H13.4897C13.6671 17.6334 13.8371 17.5629 13.9625 17.4375C14.0879 17.3121 14.1584 17.1421 14.1584 16.9647C14.1584 16.7874 14.0879 16.6173 13.9625 16.4919C13.8371 16.3665 13.6671 16.2961 13.4897 16.2961H10.8166C10.6393 16.2961 10.4692 16.3665 10.3438 16.4919C10.2184 16.6173 10.1479 16.7874 10.1479 16.9647C10.1479 17.1421 10.2184 17.3121 10.3438 17.4375C10.4692 17.5629 10.6393 17.6334 10.8166 17.6334ZM10.8166 20.3065H21.5106C21.6877 20.3065 21.8576 20.2361 21.9828 20.1109C22.1081 19.9856 22.1785 19.8157 22.1785 19.6386C22.1785 19.4614 22.1081 19.2916 21.9828 19.1663C21.8576 19.041 21.6877 18.9707 21.5106 18.9707H10.8166C10.6395 18.9707 10.4696 19.041 10.3443 19.1663C10.219 19.2916 10.1487 19.4614 10.1487 19.6386C10.1487 19.8157 10.219 19.9856 10.3443 20.1109C10.4696 20.2361 10.6395 20.3065 10.8166 20.3065ZM10.8166 22.9811H21.5106C21.6879 22.9811 21.858 22.9106 21.9834 22.7852C22.1088 22.6599 22.1792 22.4898 22.1792 22.3124C22.1792 22.1351 22.1088 21.965 21.9834 21.8396C21.858 21.7142 21.6879 21.6438 21.5106 21.6438H10.8166C10.6393 21.6438 10.4692 21.7142 10.3438 21.8396C10.2184 21.965 10.1479 22.1351 10.1479 22.3124C10.1479 22.4898 10.2184 22.6599 10.3438 22.7852C10.4692 22.9106 10.6393 22.9811 10.8166 22.9811Z" fill="#8A4200"/>
</svg>
