<svg width="30" height="30" viewBox="0 0 30 30" fill="none" xmlns="http://www.w3.org/2000/svg">
<path d="M11.4266 1.66669L11.9733 3.72002" stroke="#2142E7" stroke-width="2" stroke-linecap="round" stroke-linejoin="round"/>
<path d="M18.0533 26.3867L18.5733 28.3334" stroke="#2142E7" stroke-width="2" stroke-linecap="round" stroke-linejoin="round"/>
<path d="M5.23999 5.23999L6.74666 6.74666" stroke="#2142E7" stroke-width="2" stroke-linecap="round" stroke-linejoin="round"/>
<path d="M23.3333 23.3333L24.7599 24.76" stroke="#2142E7" stroke-width="2" stroke-linecap="round" stroke-linejoin="round"/>
<path d="M1.66663 11.4267L3.71996 11.9734" stroke="#2142E7" stroke-width="2" stroke-linecap="round" stroke-linejoin="round"/>
<path d="M26.3866 18.0533L28.3333 18.5733" stroke="#2142E7" stroke-width="2" stroke-linecap="round" stroke-linejoin="round"/>
<path d="M1.66663 18.5733L3.71996 18.0267" stroke="#2142E7" stroke-width="2" stroke-linecap="round" stroke-linejoin="round"/>
<path d="M26.3866 11.9467L28.3333 11.4267" stroke="#2142E7" stroke-width="2" stroke-linecap="round" stroke-linejoin="round"/>
<path d="M5.23999 24.76L6.74666 23.2534" stroke="#2142E7" stroke-width="2" stroke-linecap="round" stroke-linejoin="round"/>
<path d="M23.3333 6.66666L24.7599 5.23999" stroke="#2142E7" stroke-width="2" stroke-linecap="round" stroke-linejoin="round"/>
<path d="M11.4266 28.3334L11.9733 26.28" stroke="#2142E7" stroke-width="2" stroke-linecap="round" stroke-linejoin="round"/>
<path d="M18.0533 3.61335L18.5733 1.66669" stroke="#2142E7" stroke-width="2" stroke-linecap="round" stroke-linejoin="round"/>
<path d="M15 10.7587C15.5747 10.0867 16.568 9.33334 18.08 9.33334C20.7253 9.33334 22.5 11.816 22.5 14.1293C22.5 18.9627 16.4813 22.6667 15 22.6667C13.5187 22.6667 7.5 18.9627 7.5 14.1293C7.5 11.816 9.27467 9.33334 11.92 9.33334C13.432 9.33334 14.4253 10.088 15 10.7587Z" stroke="#2142E7" stroke-width="2" stroke-linecap="round" stroke-linejoin="round"/>
</svg>
