<svg width="23" height="23" viewBox="0 0 23 23" fill="none" xmlns="http://www.w3.org/2000/svg">
<rect width="23" height="23" rx="11.5" fill="white"/>
<path d="M10.864 17.189C10.36 17.189 9.884 17.091 9.436 16.895C8.988 16.699 8.59833 16.4213 8.267 16.062C7.94033 15.7027 7.70467 15.278 7.56 14.788L9.191 14.347C9.30767 14.7483 9.52 15.0587 9.828 15.278C10.1407 15.4927 10.4837 15.5977 10.857 15.593C11.1883 15.593 11.4847 15.516 11.746 15.362C12.0073 15.208 12.2127 15.0003 12.362 14.739C12.5113 14.473 12.586 14.1767 12.586 13.85C12.586 13.3507 12.425 12.933 12.103 12.597C11.781 12.261 11.3657 12.093 10.857 12.093C10.703 12.093 10.5513 12.114 10.402 12.156C10.2573 12.198 10.1173 12.2563 9.982 12.331L9.212 11.001L12.6 8.103L12.747 8.509H7.952V6.92H14.133V8.516L11.41 11.134L11.396 10.637C12.0073 10.679 12.5277 10.8493 12.957 11.148C13.391 11.4467 13.7223 11.8317 13.951 12.303C14.1843 12.7743 14.301 13.29 14.301 13.85C14.301 14.4847 14.1447 15.054 13.832 15.558C13.524 16.062 13.1087 16.461 12.586 16.755C12.068 17.0443 11.494 17.189 10.864 17.189Z" fill="#402E95"/>
</svg>
