<svg width="32" height="32" viewBox="0 0 32 32" fill="none" xmlns="http://www.w3.org/2000/svg">
<mask id="mask0_1_127" style="mask-type:luminance" maskUnits="userSpaceOnUse" x="0" y="0" width="32" height="32">
<path d="M0 0H32V32H0V0Z" fill="white"/>
</mask>
<g mask="url(#mask0_1_127)">
<path d="M16.2419 15.346L12.8419 23.369M20.7229 4.77699C22.9112 5.70587 24.6848 7.40198 25.7105 9.54655C26.7362 11.6911 26.9433 14.1365 26.2929 16.423L26.2049 16.733C26.1149 17.0507 25.9583 17.3456 25.7455 17.598C25.5326 17.8505 25.2685 18.0548 24.9706 18.1972C24.6727 18.3397 24.3479 18.4171 24.0178 18.4243C23.6876 18.4315 23.3598 18.3683 23.0559 18.239L9.41994 12.449C9.11618 12.3198 8.84336 12.1275 8.61955 11.8849C8.39574 11.6423 8.22606 11.3548 8.12176 11.0417C8.01746 10.7285 7.98092 10.3967 8.01458 10.0683C8.04823 9.73997 8.15129 9.42251 8.31694 9.13699L8.47694 8.85799C9.67046 6.80228 11.5737 5.25322 13.8289 4.50192C16.0841 3.75061 18.536 3.84879 20.7239 4.77799L20.7229 4.77699Z" stroke="#2142E7" stroke-width="2" stroke-linecap="round" stroke-linejoin="round"/>
<path d="M18.879 16.466C19.9925 14.9908 20.7629 13.2859 21.1341 11.4754C21.5054 9.66483 21.4681 7.79428 21.025 5.99998L20.723 4.77698L19.634 5.40798C18.0353 6.33582 16.6637 7.60854 15.619 9.13346C14.5743 10.6584 13.8828 12.3971 13.595 14.223M4 26.667C5.05231 25.6144 6.30168 24.7794 7.67673 24.2097C9.05179 23.6401 10.5256 23.3468 12.014 23.3468C13.5024 23.3468 14.9762 23.6401 16.3513 24.2097C17.7263 24.7794 18.9757 25.6144 20.028 26.667" stroke="#2142E7" stroke-width="2" stroke-linecap="round" stroke-linejoin="round"/>
</g>
</svg>
