<svg width="24" height="24" viewBox="0 0 24 24" fill="none" xmlns="http://www.w3.org/2000/svg">
<g clip-path="url(#clip0_1_259)">
<path d="M12 0C5.36798 0 0 5.36705 0 12C0 18.6321 5.36705 24 12 24C18.632 24 24 18.633 24 12C24 5.36794 18.633 0 12 0ZM10.0771 2.05687C10.7043 1.93692 11.3474 1.875 12 1.875C12.6526 1.875 13.2957 1.93692 13.9229 2.05687C14.9194 3.22767 15.6961 5.1232 16.149 7.37503H7.85095C8.30386 5.1232 9.08058 3.22767 10.0771 2.05687ZM1.875 12C1.875 11.057 2.00344 10.1338 2.25131 9.24998H5.67225C5.57958 10.1407 5.53125 11.0614 5.53125 12C5.53125 12.9386 5.57958 13.8593 5.67225 14.75H2.25131C2.00344 13.8662 1.875 12.943 1.875 12ZM2.98814 16.625H5.9407C6.23906 18.244 6.69267 19.7184 7.27584 20.9604C5.46436 20.0025 3.94458 18.4836 2.98814 16.625ZM5.9407 7.37498H2.98814C3.94463 5.51625 5.46445 3.9975 7.27584 3.03961C6.69267 4.28156 6.23911 5.75602 5.9407 7.37498ZM13.9229 21.9431C13.2957 22.0631 12.6526 22.125 12 22.125C11.3474 22.125 10.7043 22.0631 10.0771 21.9431C9.08062 20.7723 8.30391 18.8767 7.85095 16.625H16.1491C15.6961 18.8768 14.9194 20.7723 13.9229 21.9431ZM16.4408 14.75H7.55916C7.45898 13.862 7.40625 12.9392 7.40625 12C7.40625 11.0608 7.45898 10.138 7.55916 9.24998H16.4408C16.541 10.138 16.5938 11.0608 16.5938 12C16.5938 12.9392 16.541 13.862 16.4408 14.75ZM21.0119 7.37498H18.0593C17.7609 5.75602 17.3073 4.28156 16.7242 3.03961C18.5356 3.99755 20.0554 5.51639 21.0119 7.37498ZM16.7242 20.9603C17.3073 19.7184 17.7609 18.244 18.0593 16.625H21.0119C20.0553 18.4837 18.5355 20.0025 16.7242 20.9603ZM18.3278 14.75C18.4204 13.8593 18.4688 12.9386 18.4688 12C18.4688 11.0614 18.4204 10.1407 18.3278 9.24998H21.7487C21.9966 10.1338 22.125 11.057 22.125 12C22.125 12.943 21.9966 13.8662 21.7487 14.75H18.3278Z" fill="#BEBEBE"/>
</g>
<defs>
<clipPath id="clip0_1_259">
<rect width="24" height="24" fill="white"/>
</clipPath>
</defs>
</svg>
